<?xml version="1.0" encoding="utf-8"?>
<!-- Svg Vector Icons : http://www.onlinewebfonts.com/icon -->
<!DOCTYPE svg PUBLIC "-//W3C//DTD SVG 1.1//EN" "http://www.w3.org/Graphics/SVG/1.1/DTD/svg11.dtd">
<svg version="1.1" xmlns="http://www.w3.org/2000/svg" xmlns:xlink="http://www.w3.org/1999/xlink" x="0px" y="0px" viewBox="0 0 256 256" enable-background="new 0 0 256 256" xml:space="preserve">
<metadata> Svg Vector Icons : http://www.onlinewebfonts.com/icon </metadata>
<g><g><g><path fill="#000000" d="M34.6,246c-6.8,0-12.6-2.4-17.4-7.2c-4.8-4.8-7.2-10.6-7.2-17.4V34.6c0-6.8,2.4-12.6,7.2-17.4C22,12.4,27.8,10,34.6,10h186.8c6.8,0,12.6,2.4,17.4,7.2c4.8,4.8,7.2,10.6,7.2,17.4v186.8c0,6.8-2.4,12.6-7.2,17.4c-4.8,4.8-10.6,7.2-17.4,7.2H34.6L34.6,246z M44.3,212.8l46.9-12.3c12.3,6.5,25.4,9.7,39.3,9.7c6.6,0,13-0.7,19.3-2.2c6.3-1.5,12.2-3.6,17.8-6.4c5.5-2.8,10.7-6.1,15.6-9.9c4.9-3.8,9.2-8.2,13.1-13.1c3.8-4.9,7.2-10.1,9.9-15.6c2.8-5.5,4.9-11.5,6.4-17.8c1.5-6.3,2.2-12.8,2.2-19.3c0-11.2-2.1-22-6.3-32.2c-4.2-10.3-10.3-19.4-18.3-27.4c-8-8-17.1-14.1-27.3-18.3c-10.3-4.2-21-6.4-32.3-6.4c-7.7,0-15.1,1-22.4,3.1c-7.3,2-14,4.9-20.2,8.5c-6.2,3.6-11.8,8-17,13.2c-5.2,5.2-9.6,10.9-13.2,17c-3.6,6.2-6.5,12.9-8.5,20.2c-2,7.3-3.1,14.8-3.1,22.4c0,14.6,3.6,28.3,10.7,41L44.3,212.8z M130.5,190.5c-11.8,0-22.8-3-32.8-9.1l-3.5-2.1l-21.8,5.7l5.8-21.2l-2.4-3.6c-6.6-10.5-9.8-22-9.8-34.4c0-8.8,1.7-17.2,5.1-25.1c3.4-8,8-14.8,13.8-20.6c5.8-5.8,12.7-10.4,20.7-13.8c8-3.4,16.4-5.2,25.1-5.2c8.6,0,16.9,1.6,24.8,4.9c7.9,3.3,14.9,8,20.9,14.1c6.1,6.1,10.8,13.1,14,21c3.3,7.9,4.9,16.1,4.9,24.7c0,8.8-1.7,17.2-5.1,25.1c-3.4,8-8,14.9-13.8,20.7c-5.8,5.8-12.6,10.4-20.7,13.8C147.6,188.8,139.2,190.5,130.5,190.5z M151.7,167.9c1.6,0,3.4-0.2,5.3-0.5c2.6-0.4,5.7-1.7,9.2-3.9c3.5-2.2,5.8-4.8,6.9-7.7c1.1-3,1.6-5.9,1.6-8.5c0-1.6-0.2-2.7-0.7-3.5c-0.5-1-1.9-2-4-3l-1.1-0.6c-7.7-3.9-12.4-6.1-14.2-6.7c-1.3-0.5-2.3-0.8-3.3-0.8c-1.9,0-3.5,1-4.8,3c-0.7,1-1.8,2.3-3.3,3.9c-1.4,1.6-2.7,2.8-3.8,3.4l-1.5-0.6c-5.4-2.4-10.1-5.4-14.2-9.1c-1.8-1.5-3.4-3.2-4.9-5.1c-1.5-1.9-2.7-3.5-3.6-5s-1.5-2.7-1.8-3.8c0.4-0.5,1.1-1.3,2.2-2.6l1-1.2c0.8-0.8,1.6-2.2,2.5-4c0.5-0.9,0.7-1.9,0.7-2.8c0-1.1-0.3-2.2-0.9-3.3c-0.2-0.5-1.5-3.6-3.8-9.3l-2.3-5.6c-0.9-2.1-2-3.5-3.2-4.2c-1.2-0.7-2.5-1.1-4-1.1h-4c-3,0-5.6,1.3-8,3.8c-5.1,5.4-7.6,11.6-7.6,18.6c0,7.2,3.1,15,9.2,23.2c1.8,2.6,3.7,5.1,5.8,7.6c2.1,2.5,4.6,5.2,7.6,8.3s6.5,5.9,10.3,8.6c3.9,2.7,7.8,5,11.9,6.7c3.7,1.6,7.7,3,11.9,4.3C145.8,167.5,148.7,167.9,151.7,167.9z"/></g></g></g>
</svg>